<svg width="368" height="470" viewBox="0 0 368 470" fill="none" xmlns="http://www.w3.org/2000/svg">
<path d="M184.001 34L340.001 124V304L184.001 394L28.0007 304V124L184.001 34Z" stroke="black" stroke-width="8" stroke-linecap="round" stroke-linejoin="round"/>
<path d="M184.001 104L279.001 159V269L184.001 324L89.0007 269V159L184.001 104Z" stroke="black" stroke-width="8" stroke-linecap="round" stroke-linejoin="round"/>
<path d="M184.001 214V104" stroke="black" stroke-width="8" stroke-linecap="round" stroke-linejoin="round"/>
<path d="M184.001 214L279.001 269" stroke="black" stroke-width="8" stroke-linecap="round" stroke-linejoin="round"/>
<path d="M184.001 214L89.0007 269" stroke="black" stroke-width="8" stroke-linecap="round" stroke-linejoin="round"/>
<path d="M184.001 104V4" stroke="black" stroke-width="8" stroke-linecap="round" stroke-linejoin="round"/>
<path d="M279.001 159L364.001 109" stroke="black" stroke-width="8" stroke-linecap="round" stroke-linejoin="round"/>
<path d="M279.001 269L364.001 319" stroke="black" stroke-width="8" stroke-linecap="round" stroke-linejoin="round"/>
<path d="M184.001 324V424" stroke="black" stroke-width="8" stroke-linecap="round" stroke-linejoin="round"/>
<path d="M89.0007 269L4.00073 319" stroke="black" stroke-width="8" stroke-linecap="round" stroke-linejoin="round"/>
<path d="M89.0007 159L4.00073 109" stroke="black" stroke-width="8" stroke-linecap="round" stroke-linejoin="round"/>
<g clip-path="url(#clip0_26_78)">
<path d="M175.891 427.084H192.11C195.885 427.084 198.939 424.026 198.939 420.255V399.593C198.939 395.916 196.036 392.929 192.398 392.777H175.604C171.965 392.929 169.062 395.916 169.062 399.593V420.255C169.062 424.026 172.117 427.084 175.891 427.084Z" fill="#EFCF20" stroke="black" stroke-width="3.00001"/>
<path d="M175.604 392.777H192.398C201.985 389.332 208.846 380.164 208.846 369.393C208.846 355.671 197.72 344.548 184.001 344.548C170.281 344.548 159.156 355.671 159.156 369.393C159.156 380.164 166.017 389.332 175.604 392.777Z" fill="#A083D5" stroke="black" stroke-width="3.00001"/>
<path d="M115.338 380.428C115.656 392.18 118.361 400.478 118.476 400.826C118.767 401.705 119.535 402.341 120.453 402.464L166.641 408.635V411.034H128.55C127.498 411.034 126.567 411.714 126.246 412.716C126.139 413.05 123.626 421.018 123.406 431.932C123.114 446.49 127.119 459.343 134.991 469.1C135.83 470.14 137.353 470.303 138.393 469.464C139.433 468.625 139.596 467.101 138.757 466.062C131.535 457.109 127.997 445.707 128.241 432.171C128.375 424.749 129.675 418.68 130.389 415.873H166.641V418.033L143.719 422.408C142.739 422.596 141.975 423.365 141.794 424.346C141.741 424.63 140.524 431.402 141.601 440.229C143.042 452.034 147.953 461.894 155.803 468.745C156.81 469.623 158.338 469.519 159.217 468.513C160.096 467.506 159.991 465.978 158.985 465.099C151.983 458.989 147.756 450.473 146.422 439.788C145.71 434.082 146.057 429.236 146.33 426.836L167.024 422.886C168.161 426.708 171.704 429.503 175.889 429.503H176.149V435.357C176.149 436.693 177.232 437.776 178.569 437.776C179.905 437.776 180.988 436.693 180.988 435.357V429.503H187.012V435.357C187.012 436.693 188.095 437.776 189.431 437.776C190.768 437.776 191.851 436.693 191.851 435.357V429.503H192.111C196.296 429.503 199.839 426.708 200.976 422.886L221.67 426.836C221.944 429.238 222.29 434.083 221.578 439.788C220.244 450.473 216.018 458.988 209.015 465.099C208.009 465.978 207.905 467.506 208.783 468.513C209.662 469.519 211.19 469.623 212.197 468.745C220.047 461.894 224.958 452.034 226.399 440.229C227.477 431.401 226.259 424.63 226.207 424.346C226.025 423.365 225.261 422.596 224.281 422.408L201.359 418.033V415.873H237.61C239.294 422.522 244.228 447.488 229.244 466.062C228.405 467.102 228.568 468.625 229.608 469.464C230.648 470.302 232.171 470.14 233.01 469.1C240.881 459.343 244.887 446.49 244.595 431.932C244.375 421.018 241.862 413.05 241.755 412.716C241.434 411.714 240.502 411.034 239.45 411.034H201.36V408.635L247.548 402.464C248.467 402.341 249.234 401.705 249.525 400.826C249.64 400.478 252.346 392.18 252.663 380.428C252.958 369.538 251.152 353.529 240.875 339.105C240.402 338.443 239.658 338.089 238.902 338.09C238.417 338.09 237.926 338.236 237.5 338.539C236.412 339.314 236.158 340.825 236.934 341.913C246.399 355.198 248.084 370.036 247.83 380.144C247.621 388.491 246.095 395.096 245.345 397.877L201.36 403.754V401.606L220.844 394.427C221.668 394.123 222.262 393.397 222.398 392.53C222.468 392.082 224.097 381.391 222.907 367.204C221.802 354.024 217.93 335.284 205.755 320.86C205.277 320.293 204.593 320.001 203.905 320.001C203.354 320.001 202.8 320.188 202.346 320.571C201.325 321.433 201.196 322.96 202.057 323.981C213.383 337.399 217.019 355.047 218.075 367.489C218.988 378.248 218.185 387.091 217.798 390.393L200.876 396.628C200.354 395.076 199.431 393.709 198.227 392.65C206.195 387.762 211.263 378.982 211.263 369.393C211.263 354.36 199.033 342.13 184 342.13C168.967 342.13 156.737 354.36 156.737 369.393C156.737 378.982 161.805 387.762 169.773 392.65C168.569 393.709 167.646 395.076 167.123 396.628L150.204 390.393C149.337 382.928 146.393 347.142 165.942 323.981C166.804 322.96 166.675 321.433 165.654 320.571C165.2 320.188 164.646 320.001 164.095 320.001C163.407 320.001 162.723 320.293 162.245 320.86C150.07 335.284 146.197 354.024 145.092 367.204C143.903 381.391 145.532 392.082 145.602 392.53C145.738 393.397 146.332 394.123 147.156 394.427L166.64 401.606V403.754L122.655 397.877C121.904 395.094 120.378 388.49 120.169 380.144C119.916 370.036 121.6 355.198 131.066 341.913C131.841 340.825 131.588 339.314 130.499 338.539C130.074 338.236 129.583 338.09 129.098 338.09C128.341 338.09 127.597 338.443 127.125 339.105C116.849 353.529 115.043 369.538 115.338 380.428ZM161.576 369.392C161.576 357.027 171.636 346.967 184.001 346.967C196.366 346.967 206.425 357.027 206.425 369.392C206.425 378.828 200.46 387.311 191.58 390.5C190.491 390.891 189.832 391.999 190.007 393.143C190.181 394.286 191.142 395.146 192.298 395.195C194.666 395.293 196.522 397.225 196.522 399.593V420.062C196.522 420.073 196.522 420.254 196.522 420.254C196.522 422.686 194.543 424.665 192.111 424.665H175.89C173.458 424.665 171.48 422.686 171.48 420.254V420.073C171.48 420.062 171.48 399.593 171.48 399.593C171.48 397.233 173.324 395.307 175.682 395.197H182.721C184.058 395.197 185.14 394.114 185.14 392.778C185.14 391.441 184.058 390.358 182.721 390.358H176.048C167.376 387.067 161.576 378.695 161.576 369.392Z" fill="black" stroke="black" stroke-width="3.00001"/>
</g>
<defs>
<clipPath id="clip0_26_78">
<rect width="150" height="150" fill="white" transform="matrix(-1 0 0 -1 259.001 470)"/>
</clipPath>
</defs>
</svg>
