<svg width="150" height="150" viewBox="0 0 150 150" fill="none" xmlns="http://www.w3.org/2000/svg">
<g clip-path="url(#clip0_26_68)">
<path d="M66.8903 107.083H83.1097C86.8839 107.083 89.9387 104.025 89.9387 100.254V79.5932C89.9387 75.9158 87.0355 72.9287 83.3968 72.777H66.6032C62.9645 72.9287 60.0613 75.9158 60.0613 79.5932V100.254C60.0613 104.025 63.1161 107.083 66.8903 107.083Z" fill="#EFCF20" stroke="black" stroke-width="3.00001"/>
<path d="M66.6033 72.7771H83.3968C92.9839 69.3319 99.8452 60.1642 99.8452 49.3932C99.8452 35.6706 88.7194 24.5481 75.0001 24.5481C61.2807 24.5481 50.1549 35.6706 50.1549 49.3932C50.1549 60.1642 57.0162 69.3319 66.6033 72.7771Z" fill="#A083D5" stroke="black" stroke-width="3.00001"/>
<path d="M6.33711 60.4277C6.65485 72.1796 9.36066 80.478 9.47549 80.8254C9.76646 81.7048 10.5339 82.3406 11.452 82.4635L57.6403 88.6348V91.0342L19.5497 91.0342C18.4978 91.0342 17.5665 91.7138 17.2455 92.7158C17.1384 93.0496 14.6248 101.018 14.4055 111.932C14.1129 126.49 18.1187 139.343 25.9903 149.1C26.829 150.14 28.3526 150.303 29.3923 149.464C30.4323 148.624 30.5952 147.101 29.7561 146.062C22.5339 137.109 18.9958 125.706 19.2403 112.171C19.3745 104.749 20.6745 98.6796 21.3887 95.8729L57.6403 95.8729V98.0329L34.7187 102.408C33.7387 102.595 32.9742 103.365 32.7929 104.346C32.7407 104.63 31.5229 111.402 32.6007 120.229C34.0413 132.034 38.9523 141.894 46.8026 148.745C47.809 149.623 49.3371 149.519 50.2165 148.513C51.0948 147.506 50.9907 145.978 49.9842 145.099C42.9819 138.989 38.7552 130.473 37.4213 119.787C36.709 114.082 37.0561 109.236 37.3297 106.836L58.0236 102.886C59.16 106.707 62.7032 109.503 66.8887 109.503H67.1487V115.357C67.1487 116.693 68.2316 117.776 69.5681 117.776C70.9045 117.776 71.9874 116.693 71.9874 115.357V109.503H78.0113V115.357C78.0113 116.693 79.0942 117.776 80.4307 117.776C81.7671 117.776 82.85 116.693 82.85 115.357V109.503H83.11C87.2955 109.503 90.8387 106.707 91.9752 102.886L112.669 106.836C112.943 109.237 113.29 114.083 112.577 119.787C111.243 130.473 107.017 138.988 100.015 145.099C99.0081 145.978 98.9042 147.506 99.7823 148.513C100.661 149.519 102.189 149.623 103.196 148.745C111.046 141.894 115.958 132.034 117.398 120.229C118.476 111.401 117.258 104.63 117.206 104.346C117.025 103.365 116.26 102.595 115.28 102.408L92.3584 98.0329V95.8729H128.609C130.293 102.522 135.227 127.488 120.243 146.062C119.404 147.102 119.567 148.624 120.607 149.464C121.647 150.302 123.17 150.14 124.009 149.1C131.881 139.343 135.886 126.49 135.594 111.932C135.375 101.018 132.861 93.0496 132.754 92.7158C132.433 91.7142 131.502 91.0342 130.45 91.0342H92.359V88.6348L138.548 82.4635C139.466 82.3409 140.233 81.7048 140.524 80.8254C140.639 80.478 143.345 72.1796 143.663 60.4277C143.957 49.5377 142.151 33.529 131.874 19.1051C131.402 18.4425 130.657 18.0893 129.901 18.0896C129.416 18.0896 128.925 18.2354 128.499 18.539C127.411 19.3141 127.158 20.8251 127.933 21.9132C137.399 35.1977 139.083 50.0354 138.829 60.1438C138.62 68.4906 137.094 75.0955 136.344 77.8767L92.359 83.7535V81.6058L111.843 74.4267C112.667 74.1232 113.261 73.3971 113.397 72.5296C113.467 72.0816 115.096 61.3909 113.906 47.2038C112.802 34.0235 108.929 15.2838 96.7542 0.859634C96.2758 0.292542 95.5919 0.000610352 94.9042 0.000610352C94.3532 0.000610352 93.799 0.188019 93.3448 0.571243C92.3239 1.43318 92.1948 2.95963 93.0565 3.98061C104.382 17.399 108.019 35.0467 109.075 47.4887C109.988 58.2477 109.184 67.0906 108.797 70.3925L91.8755 76.6274C91.3529 75.0754 90.4303 73.7087 89.2261 72.65C97.1939 67.7622 102.262 58.9822 102.262 49.3929C102.262 34.36 90.0319 22.1296 74.999 22.1296C59.9658 22.1296 47.7358 34.36 47.7358 49.3929C47.7358 58.9822 52.8042 67.7619 60.7719 72.65C59.5681 73.7087 58.6452 75.0754 58.1226 76.6274L41.2029 70.3932C40.3361 62.9284 37.392 27.1422 56.9416 3.98061C57.8036 2.95963 57.6742 1.43318 56.6532 0.571243C56.199 0.188019 55.6448 0.000610352 55.0939 0.000610352C54.4058 0.000610352 53.7223 0.292542 53.2439 0.859634C41.069 15.2838 37.1965 34.0235 36.0916 47.2038C34.9023 61.3909 36.5313 72.0816 36.6013 72.5296C36.7368 73.3971 37.3313 74.1232 38.1552 74.4267L57.639 81.6058V83.7535L13.6539 77.8767C12.9036 75.0942 11.3777 68.4903 11.1687 60.1438C10.9152 50.0358 12.5997 35.1977 22.0652 21.9132C22.8403 20.8251 22.5868 19.3141 21.4987 18.539C21.0729 18.2358 20.5823 18.0896 20.0968 18.0896C19.3407 18.0896 18.5965 18.4429 18.1242 19.1051C7.84872 33.5287 6.04259 49.5377 6.33711 60.4277ZM52.5755 49.3919C52.5755 37.0271 62.6352 26.9674 75 26.9674C87.3648 26.9674 97.4245 37.0271 97.4245 49.3919C97.4245 58.8283 91.459 67.3113 82.5797 70.5003C81.4906 70.8913 80.831 71.999 81.0058 73.1425C81.1806 74.2861 82.141 75.1461 83.2968 75.1945C85.6655 75.2932 87.521 77.2248 87.521 79.5925V100.062C87.521 100.073 87.521 100.254 87.521 100.254C87.521 102.686 85.5426 104.665 83.1107 104.665H66.8897C64.4577 104.665 62.4794 102.686 62.4794 100.254V100.073C62.4794 100.062 62.4794 79.5925 62.4794 79.5925C62.4794 77.2325 64.3232 75.3067 66.681 75.1967H73.7203C75.0568 75.1967 76.1397 74.1135 76.1397 72.7774C76.1397 71.4413 75.0568 70.358 73.7203 70.358H67.0474C58.3755 67.0671 52.5755 58.6948 52.5755 49.3919Z" fill="black" stroke="black" stroke-width="3.00001"/>
</g>
<defs>
<clipPath id="clip0_26_68">
<rect width="150" height="150" fill="white" transform="matrix(-1 0 0 -1 150 150)"/>
</clipPath>
</defs>
</svg>
